<svg xmlns="http://www.w3.org/2000/svg" width="82mm" height="77.2mm" viewBox="0 0 8200 7720" shape-rendering="geometricPrecision" text-rendering="geometricPrecision" image-rendering="optimizeQuality" fill-rule="evenodd" clip-rule="evenodd"><defs><style>.fil0{fill:#000}</style></defs><path class="fil0" d="M2750 6901c0-179 139-351 352-351 306 0 448 376 243 581-203 203-478 83-556-86-15-33-39-96-39-144zm2877-13c0-274 350-464 583-244 244 229 34 596-219 596-201 0-364-155-364-352zM4 250c0 155 75 231 209 286 60 24 1022 366 1046 437l413 2256c101 584 226 1160 322 1748 37 229 124 310 392 310-65 280-286 621-286 898 0 42 33 95 51 118 70 85 265 65 374 64-8 12-52 49-74 78-210 279-169 791 119 1027 60 50 144 114 219 145 239 98 540 75 750-70l107-89c84-77 150-186 188-293 70-197 55-440-35-622-31-63-82-104-98-175h1666c-5 56-152 227-169 404-31 318 74 611 343 775 252 152 533 184 806 35 19-11 19-11 33-19 338-181 486-678 301-1013-30-54-94-138-123-179 92 0 263 8 331-17 165-62 165-303 27-390-51-40-713-26-834-26-1151 0-2302-1-3453 1 51-170 182-529 233-652h3338c980 0 734 135 1143-1095 187-561 357-1133 544-1695 47-143 265-750 265-893 0-178-151-248-299-248-1509-77-3096-121-4568-200-260-14-642-73-704 175-29 115 7 198 74 264 123 119 423 69 641 88 1389 60 2824 119 4231 181-8 99-300 970-340 1079-147 401-272 850-403 1262-41 129-126 444-181 549H2490c-12-141-240-1295-269-1475l-409-2208c-24-119-39-241-67-362-41-182-205-228-363-288C1234 363 372 3 265 3 133 3 4 116 4 250z" id="Слой_x0020_1"/></svg>