<svg xmlns="http://www.w3.org/2000/svg" width="85.5mm" height="12.5mm" viewBox="0 0 8550 1250" shape-rendering="geometricPrecision" text-rendering="geometricPrecision" image-rendering="optimizeQuality" fill-rule="evenodd" clip-rule="evenodd"><defs><style>.fil2{fill:#2b2a29;fill-rule:nonzero}.fil1{fill:#596a17}.fil0{fill:#75a125}</style></defs><g id="Слой_x0020_1"><path class="fil0" d="M440 315c-129 6-276 126-401 238 154 61 326 111 464 46 89-43 135-115 122-172-8-31-57-118-185-112z"/><path class="fil1" d="M678 322c57-37 55-108 24-155C651 89 557 49 469 16c-8 111 2 190 56 274 27 43 98 67 153 32z"/><path class="fil2" d="M958 774l271-297h59l-209 226 227 304h-58l-202-268-87 79v189h-48V248h48v380l-3 146z"/><path id="1" class="fil2" d="M1813 741c0 87-21 154-63 203s-100 73-174 73c-46 0-87-11-123-34-35-22-62-54-81-97-19-41-28-90-28-145 0-86 21-154 62-202 42-48 100-72 173-72s130 24 171 73c42 49 63 116 63 201zm-419 0c0 73 16 130 48 171 32 40 77 61 136 61s104-21 136-61c32-41 48-98 48-171s-16-130-49-170c-32-40-77-60-136-60-58 0-103 20-135 60s-48 97-48 170z"/><path id="2" class="fil2" d="M2153 467c39 0 72 7 100 21s53 38 75 71h3c-2-41-3-81-3-120V248h48v759h-32l-12-81h-4c-40 61-98 91-174 91-73 0-129-23-167-68-39-46-58-112-58-199 0-92 19-162 57-211 38-48 94-72 167-72zm0 44c-58 0-101 20-130 61-29 40-44 99-44 177 0 151 59 226 175 226 60 0 104-18 132-52 28-35 42-93 42-173v-8c0-82-14-141-41-177-28-36-72-54-134-54z"/><path id="3" class="fil2" d="M2602 1007h-48V477h48v530zm-55-678c0-31 10-46 31-46 10 0 17 4 23 12s9 20 9 34c0 15-3 27-9 35-6 9-13 13-23 13-21 0-31-16-31-48z"/><path id="4" class="fil2" d="M3046 1017c-68 0-121-25-159-74h-7c5 46 7 73 7 83v220h-115V468h93c3 10 8 34 16 72h6c36-55 90-82 161-82 67 0 120 24 157 73 38 49 56 117 56 205s-19 157-57 207c-38 49-91 74-158 74zm-28-466c-45 0-78 14-99 40-21 27-32 70-32 128v17c0 66 10 113 31 143 21 29 55 44 102 44 40 0 70-16 92-49 21-32 32-79 32-139s-11-106-32-137-52-47-94-47z"/><path id="5" class="fil2" d="M3668 458c23 0 42 1 57 4l-11 107c-16-4-33-6-51-6-46 0-83 15-111 45-29 30-43 69-43 117v282h-114V468h89l15 94h6c18-32 41-57 70-76s60-28 93-28z"/><path id="6" class="fil2" d="M4284 736c0 88-23 157-68 207-45 49-108 74-189 74-50 0-95-12-134-34-38-23-68-56-89-99-21-42-31-92-31-148 0-87 22-156 67-205s108-73 190-73c78 0 140 25 185 75 46 50 69 118 69 203zm-393 0c0 125 46 187 138 187 91 0 137-62 137-187 0-123-46-185-138-185-48 0-83 16-105 48-21 32-32 78-32 137z"/><path id="7" class="fil2" d="M4686 554h-132v453h-115V554h-89v-53l89-35v-35c0-64 15-111 45-142s75-46 137-46c40 0 80 7 119 20l-30 86c-29-9-56-13-81-13-26 0-45 8-57 24s-18 40-18 72v36h132v86z"/><path id="8" class="fil2" d="M5013 1017c-84 0-150-25-197-74s-71-116-71-202c0-88 22-157 66-208 44-50 104-75 181-75 71 0 127 21 168 65 42 43 62 102 62 178v62h-359c2 52 16 93 42 121 27 28 65 42 113 42 32 0 62-3 89-9s57-16 89-30v93c-28 14-57 23-85 28-29 6-62 9-98 9zm-21-472c-37 0-66 11-88 34s-35 57-39 101h245c-1-44-12-78-32-101-21-23-50-34-86-34z"/><path id="9" class="fil2" d="M5715 853c0 53-19 93-57 122-39 28-94 42-165 42-72 0-130-11-173-33v-99c63 29 122 44 177 44 70 0 105-21 105-64 0-14-3-25-11-34s-21-19-39-28c-18-10-43-21-74-34-62-24-105-48-127-72-21-24-32-55-32-93 0-47 18-82 55-108 38-26 88-38 152-38s124 12 180 38l-37 87c-58-25-107-37-147-37-60 0-90 18-90 52 0 17 8 31 23 43 16 12 51 28 104 48 44 18 76 33 97 48 20 14 35 31 44 49 10 19 15 41 15 67z"/><path id="10" class="fil2" d="M6201 853c0 53-19 93-57 122-39 28-94 42-165 42-72 0-130-11-173-33v-99c63 29 122 44 177 44 70 0 106-21 106-64 0-14-4-25-12-34s-21-19-39-28c-18-10-42-21-74-34-62-24-104-48-126-72s-33-55-33-93c0-47 18-82 56-108 37-26 87-38 152-38 63 0 123 12 179 38l-37 87c-58-25-107-37-146-37-61 0-91 18-91 52 0 17 8 31 23 43 16 12 51 28 104 48 44 18 77 33 97 48 20 14 35 31 45 49 9 19 14 41 14 67z"/><path id="11" class="fil2" d="M6440 1007h-115V468h115v539zm-122-682c0-21 6-36 17-47 11-12 27-17 48-17 20 0 36 5 47 17 11 11 17 26 17 47 0 19-6 35-17 46s-27 17-47 17c-21 0-37-6-48-17s-17-27-17-46z"/><path id="12" class="fil2" d="M7082 736c0 88-23 157-68 207-45 49-108 74-189 74-50 0-95-12-133-34-39-23-69-56-90-99-21-42-31-92-31-148 0-87 23-156 67-205 45-49 109-73 190-73 78 0 140 25 186 75 45 50 68 118 68 203zm-393 0c0 125 46 187 138 187 91 0 137-62 137-187 0-123-46-185-138-185-48 0-83 16-104 48-22 32-33 78-33 137z"/><path id="13" class="fil2" d="M7688 1007h-115V675c0-41-9-72-25-93-17-20-44-31-80-31-49 0-84 15-106 43-23 29-34 77-34 144v269h-115V468h90l16 70h6c16-26 39-45 69-59s63-21 100-21c129 0 194 66 194 197v352z"/><path id="14" class="fil2" d="M8184 1007l-23-75h-3c-26 33-52 55-79 67-26 12-60 18-101 18-53 0-95-15-124-43-30-29-45-69-45-122 0-55 21-97 62-125 41-29 104-44 189-47l93-3v-28c0-35-8-61-24-78s-41-26-75-26c-28 0-54 4-80 13-25 8-49 17-73 28l-37-81c29-16 61-27 96-35s68-12 99-12c68 0 120 15 155 45 35 29 52 76 52 141v363h-82zm-170-78c41 0 75-12 100-35s38-56 38-98v-47l-69 3c-54 2-94 11-118 27-25 16-37 41-37 74 0 24 7 43 21 56 15 13 36 20 65 20z"/><path id="15" class="fil2" d="M8541 1007h-115V248h115z"/></g></svg>