<svg xmlns="http://www.w3.org/2000/svg" width="61mm" height="26.5mm" viewBox="0 0 6100 2650" shape-rendering="geometricPrecision" text-rendering="geometricPrecision" image-rendering="optimizeQuality" fill-rule="evenodd" clip-rule="evenodd"><defs><style>.fil0{fill:#ea7497}</style></defs><g id="Слой_x0020_1"><path class="fil0" d="M4367.19 1807.1c-155-128.73-1653.12-1396.75-1721.62-1415.04l-.02 1874.93c-.29 124.8 3.02 186.28 62.05 256.34 47.2 56.01 122 97.41 220.98 97.41h2877.23c168.97 0 268.15-146.52 271.22-340.95V380.27c-572.38 462.17-1146.56 951.95-1709.84 1426.83z"/><path class="fil0" d="M2692.74 132.64c113.35 169.26 1448.46 1220.7 1674.45 1403.24 131.59-110.43 1595.13-1308.2 1650.88-1391.45-38.52-57.52-105.19-117.92-200.47-117.92H2904.99c-114.97 0-176.19 36.56-212.25 106.13zM24.81 285.93h2093.6v416.56H24.81zm566.01 818.37h1527.59v416.56H590.82zm564.05 840.09h963.55v416.56h-963.55z"/></g></svg>